<svg width="170" height="66" viewBox="0 0 170 66" fill="none" xmlns="http://www.w3.org/2000/svg">
<path d="M41.504 38C41.392 38 41.16 37.984 40.808 37.952C40.456 37.904 40.048 37.848 39.584 37.784C39.12 37.72 38.648 37.656 38.168 37.592C37.704 37.512 37.288 37.44 36.92 37.376C36.568 37.296 36.32 37.232 36.176 37.184C36.176 37.056 36.2 36.928 36.248 36.8C36.296 36.656 36.344 36.552 36.392 36.488L37.088 36.392C37.376 36.344 37.608 36.256 37.784 36.128C37.96 36 38.08 35.776 38.144 35.456C38.224 35.12 38.264 34.624 38.264 33.968V24.416C38.264 23.824 38.312 23.384 38.408 23.096C38.52 22.792 38.616 22.6 38.696 22.52H36.44C36.408 22.456 36.36 22.376 36.296 22.28C36.232 22.168 36.184 22.032 36.152 21.872C36.248 21.76 36.392 21.648 36.584 21.536C36.792 21.424 36.992 21.328 37.184 21.248C37.392 21.152 37.544 21.104 37.64 21.104H43.208C43.272 21.184 43.336 21.312 43.4 21.488C43.48 21.664 43.52 21.864 43.52 22.088L42.464 22.4C42.176 22.48 41.944 22.592 41.768 22.736C41.608 22.864 41.488 23.064 41.408 23.336C41.328 23.592 41.288 23.968 41.288 24.464V28.496C41.88 28.496 42.512 28.488 43.184 28.472C43.872 28.456 44.544 28.44 45.2 28.424C45.856 28.408 46.456 28.384 47 28.352C47.56 28.32 48.024 28.296 48.392 28.28V24.416C48.392 23.84 48.44 23.4 48.536 23.096C48.648 22.776 48.744 22.584 48.824 22.52H46.568C46.52 22.456 46.464 22.368 46.4 22.256C46.336 22.144 46.304 22.016 46.304 21.872C46.384 21.76 46.52 21.648 46.712 21.536C46.92 21.424 47.12 21.328 47.312 21.248C47.52 21.152 47.672 21.104 47.768 21.104H53.312C53.392 21.184 53.464 21.312 53.528 21.488C53.592 21.664 53.624 21.864 53.624 22.088L52.592 22.4C52.32 22.464 52.096 22.568 51.92 22.712C51.744 22.84 51.608 23.04 51.512 23.312C51.432 23.568 51.392 23.952 51.392 24.464V34.616C51.392 35.016 51.344 35.36 51.248 35.648C51.168 35.92 51.08 36.112 50.984 36.224L53.36 36.536C53.392 36.552 53.432 36.624 53.48 36.752C53.528 36.88 53.552 37.024 53.552 37.184C53.312 37.392 53.008 37.584 52.64 37.76C52.272 37.92 51.936 38 51.632 38C51.52 38 51.28 37.984 50.912 37.952C50.56 37.904 50.152 37.848 49.688 37.784C49.224 37.72 48.76 37.656 48.296 37.592C47.832 37.512 47.416 37.44 47.048 37.376C46.68 37.296 46.432 37.232 46.304 37.184C46.304 37.04 46.328 36.904 46.376 36.776C46.424 36.648 46.472 36.552 46.52 36.488L47.216 36.392C47.52 36.344 47.752 36.256 47.912 36.128C48.088 36 48.208 35.768 48.272 35.432C48.352 35.096 48.392 34.608 48.392 33.968V30.056H41.288V34.616C41.288 35.016 41.24 35.36 41.144 35.648C41.048 35.936 40.952 36.128 40.856 36.224L43.256 36.536C43.288 36.568 43.32 36.656 43.352 36.8C43.4 36.928 43.424 37.056 43.424 37.184C43.184 37.392 42.88 37.584 42.512 37.76C42.144 37.92 41.808 38 41.504 38ZM60.5893 38.096C60.2053 38.096 59.7973 38.008 59.3653 37.832C58.9333 37.64 58.5253 37.408 58.1413 37.136C57.7733 36.864 57.4693 36.608 57.2293 36.368C56.9893 36.112 56.8693 35.912 56.8693 35.768V28.616C56.8693 28.472 56.8373 28.344 56.7733 28.232C56.7253 28.12 56.6373 28.04 56.5093 27.992L55.1173 27.488C55.1493 27.28 55.1893 27.112 55.2373 26.984C55.2853 26.856 55.3493 26.752 55.4293 26.672C55.6853 26.528 56.0613 26.384 56.5573 26.24C57.0693 26.08 57.5173 26 57.9013 26C58.4133 26 58.8373 26.176 59.1733 26.528C59.5253 26.88 59.7013 27.32 59.7013 27.848V35.048C59.8453 35.176 60.0213 35.328 60.2293 35.504C60.4373 35.664 60.6533 35.808 60.8773 35.936C61.1013 36.064 61.2933 36.128 61.4533 36.128C61.6133 36.128 61.8453 36.088 62.1493 36.008C62.4533 35.928 62.7733 35.824 63.1093 35.696C63.4453 35.552 63.7573 35.416 64.0453 35.288V28.616C64.0453 28.488 64.0133 28.368 63.9493 28.256C63.8853 28.128 63.7813 28.04 63.6373 27.992L62.0053 27.44C62.0213 27.248 62.0613 27.088 62.1253 26.96C62.1893 26.816 62.2453 26.72 62.2933 26.672C62.4693 26.576 62.7173 26.48 63.0373 26.384C63.3733 26.272 63.7253 26.184 64.0933 26.12C64.4773 26.04 64.7973 26 65.0533 26C65.5653 26 65.9893 26.176 66.3253 26.528C66.6773 26.88 66.8533 27.32 66.8533 27.848V36.2L68.4853 36.392C68.5173 36.456 68.5573 36.552 68.6053 36.68C68.6693 36.808 68.7013 36.96 68.7013 37.136C68.6053 37.264 68.4293 37.4 68.1733 37.544C67.9333 37.672 67.6613 37.784 67.3573 37.88C67.0533 37.96 66.7893 38 66.5653 38C66.0693 38 65.6213 37.872 65.2213 37.616C64.8213 37.344 64.5333 37.032 64.3573 36.68C64.0373 36.888 63.6453 37.104 63.1813 37.328C62.7173 37.536 62.2533 37.72 61.7893 37.88C61.3253 38.024 60.9253 38.096 60.5893 38.096ZM74.213 38C74.069 38 73.805 37.976 73.421 37.928C73.037 37.864 72.613 37.792 72.149 37.712C71.685 37.616 71.245 37.528 70.829 37.448C70.429 37.352 70.133 37.272 69.941 37.208C69.941 37.08 69.965 36.952 70.013 36.824C70.077 36.696 70.133 36.6 70.181 36.536L70.829 36.416C71.085 36.368 71.277 36.232 71.405 36.008C71.533 35.768 71.597 35.264 71.597 34.496V28.616C71.597 28.488 71.573 28.368 71.525 28.256C71.477 28.128 71.373 28.04 71.213 27.992L69.797 27.488C69.829 27.28 69.869 27.112 69.917 26.984C69.965 26.856 70.029 26.752 70.109 26.672C70.381 26.528 70.765 26.384 71.261 26.24C71.757 26.08 72.197 26 72.581 26C73.077 26 73.493 26.16 73.829 26.48C74.181 26.784 74.365 27.184 74.381 27.68C74.717 27.44 75.077 27.192 75.461 26.936C75.845 26.68 76.221 26.464 76.589 26.288C76.973 26.096 77.309 26 77.597 26C77.981 26 78.421 26.088 78.917 26.264C79.413 26.424 79.877 26.64 80.309 26.912C80.757 27.168 81.093 27.448 81.317 27.752C81.573 27.592 81.853 27.416 82.157 27.224C82.477 27.016 82.797 26.824 83.117 26.648C83.453 26.456 83.765 26.304 84.053 26.192C84.357 26.064 84.613 26 84.821 26C85.189 26 85.605 26.072 86.069 26.216C86.533 26.36 86.973 26.552 87.389 26.792C87.805 27.016 88.149 27.272 88.421 27.56C88.693 27.832 88.829 28.104 88.829 28.376V34.976C88.829 35.328 88.789 35.624 88.709 35.864C88.645 36.088 88.581 36.248 88.517 36.344L90.413 36.56C90.445 36.592 90.477 36.672 90.509 36.8C90.557 36.912 90.581 37.04 90.581 37.184C90.501 37.312 90.349 37.44 90.125 37.568C89.901 37.68 89.661 37.784 89.405 37.88C89.165 37.96 88.957 38 88.781 38C88.637 38 88.365 37.976 87.965 37.928C87.565 37.864 87.125 37.792 86.645 37.712C86.165 37.616 85.717 37.528 85.301 37.448C84.901 37.352 84.605 37.272 84.413 37.208C84.413 37.064 84.437 36.936 84.485 36.824C84.533 36.696 84.581 36.6 84.629 36.536L85.229 36.416C85.389 36.4 85.525 36.344 85.637 36.248C85.765 36.152 85.861 35.976 85.925 35.72C85.989 35.448 86.021 35.04 86.021 34.496V29.408C86.021 29.264 85.949 29.12 85.805 28.976C85.661 28.816 85.485 28.672 85.277 28.544C85.069 28.416 84.869 28.312 84.677 28.232C84.485 28.152 84.341 28.112 84.245 28.112C84.085 28.112 83.829 28.168 83.477 28.28C83.125 28.376 82.773 28.488 82.421 28.616C82.069 28.744 81.797 28.856 81.605 28.952V34.856C81.605 35.208 81.565 35.52 81.485 35.792C81.405 36.048 81.325 36.232 81.245 36.344L83.093 36.56C83.125 36.592 83.157 36.672 83.189 36.8C83.237 36.912 83.261 37.04 83.261 37.184C83.181 37.312 83.021 37.44 82.781 37.568C82.557 37.68 82.317 37.784 82.061 37.88C81.805 37.96 81.589 38 81.413 38C81.269 38 81.005 37.976 80.621 37.928C80.237 37.864 79.813 37.792 79.349 37.712C78.901 37.616 78.477 37.528 78.077 37.448C77.677 37.352 77.381 37.272 77.189 37.208C77.189 37.08 77.213 36.952 77.261 36.824C77.325 36.696 77.381 36.6 77.429 36.536L78.005 36.416C78.277 36.384 78.477 36.248 78.605 36.008C78.733 35.752 78.797 35.248 78.797 34.496V29.408C78.797 29.264 78.725 29.12 78.581 28.976C78.437 28.816 78.253 28.672 78.029 28.544C77.821 28.416 77.613 28.312 77.405 28.232C77.213 28.152 77.069 28.112 76.973 28.112C76.861 28.112 76.685 28.144 76.445 28.208C76.221 28.272 75.973 28.352 75.701 28.448C75.445 28.544 75.197 28.64 74.957 28.736C74.717 28.816 74.541 28.88 74.429 28.928V34.856C74.429 35.176 74.389 35.472 74.309 35.744C74.229 36.016 74.141 36.216 74.045 36.344L75.893 36.56C75.925 36.608 75.957 36.688 75.989 36.8C76.037 36.912 76.061 37.04 76.061 37.184C75.981 37.312 75.821 37.44 75.581 37.568C75.357 37.68 75.117 37.784 74.861 37.88C74.605 37.96 74.389 38 74.213 38ZM95.4579 38.096C95.1379 38.096 94.7619 38 94.3299 37.808C93.8979 37.6 93.5059 37.368 93.1539 37.112C92.8019 36.84 92.5619 36.624 92.4339 36.464C92.3379 36.272 92.2499 35.984 92.1699 35.6C92.1059 35.216 92.0739 34.8 92.0739 34.352C92.0739 34.144 92.0819 33.952 92.0979 33.776C92.1139 33.6 92.1299 33.432 92.1459 33.272C92.1939 33.176 92.3059 33.04 92.4819 32.864C92.6739 32.688 92.8899 32.512 93.1299 32.336C93.3859 32.144 93.6339 31.984 93.8739 31.856C94.1139 31.712 94.3059 31.624 94.4499 31.592C94.5779 31.56 94.7939 31.536 95.0979 31.52C95.4019 31.504 95.7299 31.488 96.0819 31.472C96.3219 31.456 96.5619 31.44 96.8019 31.424C97.0419 31.392 97.2739 31.36 97.4979 31.328C97.7379 31.296 97.9699 31.264 98.1939 31.232C98.4179 31.2 98.6339 31.168 98.8419 31.136V28.544C98.4899 28.352 98.0659 28.2 97.5699 28.088C97.0739 27.976 96.6259 27.92 96.2259 27.92C96.0819 27.92 95.9299 27.928 95.7699 27.944C95.6259 27.944 95.5059 27.952 95.4099 27.968L94.6659 29.936C94.5859 29.968 94.4499 30.016 94.2579 30.08C94.0819 30.144 93.8419 30.192 93.5379 30.224C93.3779 30.032 93.1859 29.72 92.9619 29.288C92.7379 28.856 92.5859 28.384 92.5059 27.872C92.8419 27.568 93.2339 27.304 93.6819 27.08C94.1299 26.84 94.6019 26.648 95.0979 26.504C95.5939 26.344 96.0819 26.224 96.5619 26.144C97.0419 26.048 97.4739 26 97.8579 26C98.1779 26 98.5459 26.088 98.9619 26.264C99.3939 26.44 99.8179 26.656 100.234 26.912C100.65 27.168 100.994 27.44 101.266 27.728C101.538 28 101.674 28.24 101.674 28.448V36.2L103.306 36.392C103.354 36.456 103.402 36.552 103.45 36.68C103.498 36.808 103.522 36.96 103.522 37.136C103.41 37.296 103.218 37.44 102.946 37.568C102.69 37.696 102.418 37.8 102.13 37.88C101.858 37.96 101.618 38 101.41 38C101.042 38 100.706 37.936 100.402 37.808C100.114 37.664 99.8659 37.488 99.6579 37.28C99.4659 37.056 99.3059 36.832 99.1779 36.608C98.8419 36.816 98.4339 37.04 97.9539 37.28C97.4899 37.504 97.0339 37.696 96.5859 37.856C96.1379 38.016 95.7619 38.096 95.4579 38.096ZM96.4179 36.08C96.5779 36.08 96.8099 36.048 97.1139 35.984C97.4339 35.904 97.7539 35.808 98.0739 35.696C98.3939 35.568 98.6499 35.456 98.8419 35.36V32.576C98.5539 32.64 98.2339 32.704 97.8819 32.768C97.5299 32.816 97.1939 32.856 96.8739 32.888C96.4739 32.952 96.0739 33.016 95.6739 33.08C95.2739 33.144 94.9699 33.256 94.7619 33.416C94.7619 33.672 94.7699 33.984 94.7859 34.352C94.8019 34.72 94.8579 35.04 94.9539 35.312C95.0979 35.472 95.3139 35.64 95.6019 35.816C95.8899 35.992 96.1619 36.08 96.4179 36.08ZM108.994 38C108.85 38 108.586 37.976 108.202 37.928C107.818 37.864 107.394 37.792 106.93 37.712C106.466 37.616 106.026 37.528 105.61 37.448C105.21 37.352 104.914 37.272 104.722 37.208C104.722 37.08 104.746 36.952 104.794 36.824C104.858 36.696 104.914 36.6 104.962 36.536L105.61 36.416C105.866 36.368 106.058 36.232 106.186 36.008C106.314 35.768 106.378 35.264 106.378 34.496V28.616C106.378 28.488 106.354 28.368 106.306 28.256C106.258 28.128 106.154 28.04 105.994 27.992L104.578 27.488C104.61 27.28 104.65 27.112 104.698 26.984C104.746 26.856 104.81 26.752 104.89 26.672C105.162 26.528 105.546 26.384 106.042 26.24C106.538 26.08 106.978 26 107.362 26C107.858 26 108.274 26.152 108.61 26.456C108.962 26.76 109.146 27.16 109.162 27.656C109.498 27.432 109.858 27.192 110.242 26.936C110.626 26.68 111.002 26.464 111.37 26.288C111.754 26.096 112.09 26 112.378 26C112.746 26 113.154 26.072 113.602 26.216C114.066 26.36 114.506 26.552 114.922 26.792C115.338 27.016 115.682 27.272 115.954 27.56C116.226 27.832 116.362 28.104 116.362 28.376V34.976C116.362 35.312 116.322 35.6 116.242 35.84C116.178 36.08 116.114 36.248 116.05 36.344L117.946 36.56C117.978 36.608 118.01 36.696 118.042 36.824C118.09 36.936 118.114 37.056 118.114 37.184C118.034 37.312 117.882 37.44 117.658 37.568C117.434 37.68 117.194 37.784 116.938 37.88C116.698 37.96 116.49 38 116.314 38C116.17 38 115.898 37.976 115.498 37.928C115.114 37.864 114.682 37.792 114.202 37.712C113.738 37.616 113.298 37.528 112.882 37.448C112.482 37.352 112.186 37.272 111.994 37.208C111.994 37.064 112.018 36.936 112.066 36.824C112.114 36.696 112.162 36.6 112.21 36.536L112.786 36.44C112.946 36.408 113.082 36.344 113.194 36.248C113.306 36.152 113.386 35.976 113.434 35.72C113.498 35.448 113.53 35.04 113.53 34.496V29.408C113.53 29.264 113.458 29.12 113.314 28.976C113.186 28.816 113.018 28.672 112.81 28.544C112.602 28.416 112.394 28.312 112.186 28.232C111.994 28.152 111.85 28.112 111.754 28.112C111.642 28.112 111.466 28.144 111.226 28.208C111.002 28.272 110.754 28.352 110.482 28.448C110.226 28.544 109.978 28.64 109.738 28.736C109.498 28.816 109.322 28.88 109.21 28.928V34.856C109.21 35.176 109.17 35.472 109.09 35.744C109.01 36.016 108.922 36.216 108.826 36.344L110.65 36.56C110.682 36.592 110.714 36.672 110.746 36.8C110.794 36.912 110.818 37.04 110.818 37.184C110.738 37.312 110.586 37.44 110.362 37.568C110.138 37.68 109.898 37.784 109.642 37.88C109.386 37.96 109.17 38 108.994 38ZM124.677 38C124.245 38 123.789 37.92 123.309 37.76C122.829 37.6 122.373 37.408 121.941 37.184C121.509 36.944 121.141 36.712 120.837 36.488C120.533 36.264 120.333 36.096 120.237 35.984C120.029 35.712 119.861 35.272 119.733 34.664C119.621 34.04 119.565 33.376 119.565 32.672C119.565 32.048 119.589 31.44 119.637 30.848C119.701 30.256 119.781 29.72 119.877 29.24C119.973 28.744 120.069 28.352 120.165 28.064C120.389 27.92 120.709 27.736 121.125 27.512C121.541 27.272 122.005 27.04 122.517 26.816C123.029 26.592 123.549 26.4 124.077 26.24C124.621 26.08 125.125 26 125.589 26C125.877 26 126.221 26.088 126.621 26.264C127.037 26.424 127.429 26.624 127.797 26.864C128.181 27.088 128.445 27.296 128.589 27.488C128.685 27.632 128.765 27.88 128.829 28.232C128.893 28.584 128.949 28.96 128.997 29.36C129.045 29.76 129.069 30.112 129.069 30.416C128.893 30.672 128.669 30.92 128.397 31.16C128.141 31.4 127.885 31.608 127.629 31.784C127.373 31.96 127.157 32.104 126.981 32.216C126.741 32.28 126.381 32.344 125.901 32.408C125.437 32.472 124.893 32.528 124.269 32.576C123.661 32.624 123.013 32.656 122.325 32.672C122.357 33.184 122.405 33.64 122.469 34.04C122.533 34.44 122.597 34.68 122.661 34.76C122.709 34.824 122.821 34.92 122.997 35.048C123.189 35.176 123.405 35.312 123.645 35.456C123.901 35.6 124.141 35.728 124.365 35.84C124.605 35.936 124.797 35.984 124.941 35.984C125.149 35.984 125.413 35.96 125.733 35.912C126.069 35.864 126.421 35.816 126.789 35.768C127.157 35.72 127.501 35.672 127.821 35.624C128.141 35.56 128.397 35.504 128.589 35.456C128.653 35.536 128.717 35.632 128.781 35.744C128.861 35.856 128.909 36.008 128.925 36.2C128.669 36.44 128.325 36.704 127.893 36.992C127.461 37.28 126.965 37.52 126.405 37.712C125.861 37.904 125.285 38 124.677 38ZM123.909 31.16C124.213 31.16 124.533 31.144 124.869 31.112C125.205 31.08 125.517 31.04 125.805 30.992C126.109 30.928 126.333 30.856 126.477 30.776C126.477 30.584 126.461 30.352 126.429 30.08C126.413 29.808 126.389 29.552 126.357 29.312C126.325 29.056 126.285 28.88 126.237 28.784C126.205 28.704 126.101 28.608 125.925 28.496C125.749 28.368 125.557 28.264 125.349 28.184C125.157 28.088 124.989 28.04 124.845 28.04C124.717 28.04 124.501 28.072 124.197 28.136C123.893 28.184 123.589 28.256 123.285 28.352C122.981 28.432 122.749 28.512 122.589 28.592C122.525 28.784 122.469 29.016 122.421 29.288C122.389 29.56 122.357 29.848 122.325 30.152C122.309 30.44 122.301 30.72 122.301 30.992C122.477 31.056 122.717 31.104 123.021 31.136C123.341 31.168 123.637 31.176 123.909 31.16ZM144.57 38C144.362 38 144.082 37.952 143.73 37.856C143.394 37.744 143.034 37.608 142.65 37.448C142.282 37.272 141.93 37.08 141.594 36.872C141.274 36.664 141.034 36.448 140.874 36.224L137.514 23.312C137.45 23.072 137.346 22.88 137.202 22.736C137.058 22.592 136.826 22.52 136.506 22.52H135.354C135.306 22.456 135.25 22.368 135.186 22.256C135.138 22.144 135.106 22.016 135.09 21.872C135.17 21.776 135.298 21.672 135.474 21.56C135.666 21.432 135.866 21.328 136.074 21.248C136.282 21.152 136.45 21.104 136.578 21.104H142.794C142.874 21.168 142.946 21.296 143.01 21.488C143.074 21.68 143.106 21.88 143.106 22.088L141.954 22.376C141.746 22.44 141.538 22.528 141.33 22.64C141.122 22.752 140.962 22.928 140.85 23.168C140.754 23.408 140.762 23.768 140.874 24.248L143.514 35.048C143.658 35.192 143.858 35.344 144.114 35.504C144.386 35.648 144.666 35.768 144.954 35.864C145.258 35.944 145.522 35.984 145.746 35.984L148.41 25.304C148.634 24.44 148.866 23.784 149.106 23.336C149.362 22.888 149.57 22.616 149.73 22.52H146.754C146.69 22.456 146.626 22.376 146.562 22.28C146.514 22.184 146.482 22.048 146.466 21.872C146.594 21.76 146.778 21.648 147.018 21.536C147.258 21.408 147.498 21.304 147.738 21.224C147.978 21.144 148.138 21.104 148.218 21.104H153.282C153.346 21.168 153.41 21.296 153.474 21.488C153.554 21.664 153.594 21.864 153.594 22.088L152.802 22.328C152.434 22.44 152.114 22.584 151.842 22.76C151.586 22.936 151.354 23.2 151.146 23.552C150.938 23.888 150.73 24.376 150.522 25.016C150.33 25.64 150.098 26.464 149.826 27.488L147.618 36.176C147.474 36.352 147.274 36.552 147.018 36.776C146.762 36.984 146.482 37.184 146.178 37.376C145.89 37.552 145.602 37.704 145.314 37.832C145.026 37.944 144.778 38 144.57 38ZM160.285 38C160.173 38 159.941 37.984 159.589 37.952C159.237 37.904 158.829 37.848 158.365 37.784C157.901 37.72 157.429 37.656 156.949 37.592C156.485 37.512 156.069 37.44 155.701 37.376C155.349 37.296 155.101 37.232 154.957 37.184C154.957 37.056 154.981 36.928 155.029 36.8C155.077 36.656 155.125 36.552 155.173 36.488L155.869 36.392C156.157 36.344 156.389 36.256 156.565 36.128C156.741 36 156.861 35.776 156.925 35.456C157.005 35.12 157.045 34.624 157.045 33.968V24.416C157.045 23.952 157.069 23.584 157.117 23.312C157.181 23.04 157.253 22.848 157.333 22.736C157.413 22.608 157.461 22.536 157.477 22.52H155.221C155.157 22.456 155.093 22.368 155.029 22.256C154.981 22.128 154.949 22 154.933 21.872C155.029 21.76 155.173 21.648 155.365 21.536C155.573 21.424 155.773 21.328 155.965 21.248C156.173 21.152 156.325 21.104 156.421 21.104H166.381C166.765 21.232 167.157 21.424 167.557 21.68C167.957 21.92 168.277 22.176 168.517 22.448C168.453 23.376 168.349 24.224 168.205 24.992C168.061 25.76 167.925 26.32 167.797 26.672C167.493 26.672 167.189 26.64 166.885 26.576C166.597 26.512 166.381 26.448 166.237 26.384L165.613 22.976C165.293 22.864 164.765 22.768 164.029 22.688C163.309 22.592 162.477 22.544 161.533 22.544C160.893 22.544 160.485 22.728 160.309 23.096C160.149 23.448 160.069 23.904 160.069 24.464V28.808C160.757 28.792 161.397 28.776 161.989 28.76C162.581 28.728 163.133 28.688 163.645 28.64C164.157 28.592 164.645 28.544 165.109 28.496L165.373 28.808C165.357 29.176 165.317 29.496 165.253 29.768C165.205 30.024 165.157 30.216 165.109 30.344H160.069V34.616C160.069 35.016 160.021 35.36 159.925 35.648C159.829 35.936 159.733 36.128 159.637 36.224L162.157 36.536C162.189 36.584 162.221 36.672 162.253 36.8C162.301 36.912 162.333 37.04 162.349 37.184C162.125 37.392 161.805 37.584 161.389 37.76C160.973 37.92 160.605 38 160.285 38Z" fill="white"/>
<rect y="15" width="30" height="30" rx="5" fill="white"/>
<path fill-rule="evenodd" clip-rule="evenodd" d="M13.0312 23.3438C13.0312 22.0493 14.0806 21 15.375 21C16.6694 21 17.7187 22.0493 17.7187 23.3438V23.3858L17.7552 23.3648C18.8762 22.7176 20.3096 23.1017 20.9568 24.2227C21.604 25.3437 21.2199 26.7771 20.0989 27.4243L20.0625 27.4453L20.0989 27.4663C21.2199 28.1136 21.604 29.547 20.9568 30.668C20.3096 31.789 18.8762 32.173 17.7552 31.5258L17.7187 31.5048V31.5469C17.7187 32.8413 16.6694 33.8906 15.375 33.8906C14.0806 33.8906 13.0312 32.8413 13.0312 31.5469V31.5048L12.9948 31.5258C11.8738 32.173 10.4404 31.789 9.79318 30.668C9.14598 29.547 9.53006 28.1136 10.6511 27.4663L10.6875 27.4453L10.6511 27.4243C9.53006 26.7771 9.14597 25.3437 9.79318 24.2227C10.4404 23.1017 11.8738 22.7176 12.9948 23.3648L13.0312 23.3858V23.3438ZM17.7187 27.4453C17.7187 28.7397 16.6694 29.7891 15.375 29.7891C14.0806 29.7891 13.0312 28.7397 13.0312 27.4453C13.0312 26.1509 14.0806 25.1016 15.375 25.1016C16.6694 25.1016 17.7187 26.1509 17.7187 27.4453Z" fill="url(#paint0_linear_10_46)"/>
<path d="M14.2031 39.75H13.0312C9.79521 39.75 7.17188 37.1267 7.17188 33.8906V32.7188H8.34375C11.5798 32.7188 14.2031 35.3421 14.2031 38.5781V39.75Z" fill="url(#paint1_linear_10_46)"/>
<path d="M17.7188 39.75H16.5469V38.5781C16.5469 35.3421 19.1702 32.7188 22.4062 32.7188H23.5781V33.8906C23.5781 37.1267 20.9548 39.75 17.7188 39.75Z" fill="url(#paint2_linear_10_46)"/>
<defs>
<linearGradient id="paint0_linear_10_46" x1="15.375" y1="21" x2="15.375" y2="39.75" gradientUnits="userSpaceOnUse">
<stop offset="0.9999" stop-color="#167B63"/>
<stop offset="1" stop-color="white"/>
</linearGradient>
<linearGradient id="paint1_linear_10_46" x1="15.375" y1="21" x2="15.375" y2="39.75" gradientUnits="userSpaceOnUse">
<stop offset="0.9999" stop-color="#167B63"/>
<stop offset="1" stop-color="white"/>
</linearGradient>
<linearGradient id="paint2_linear_10_46" x1="15.375" y1="21" x2="15.375" y2="39.75" gradientUnits="userSpaceOnUse">
<stop offset="0.9999" stop-color="#167B63"/>
<stop offset="1" stop-color="white"/>
</linearGradient>
</defs>
</svg>
